<svg xmlns="http://www.w3.org/2000/svg" viewBox="0 0 680 430"><defs><filter id="glow" x="-20%" y="-20%" width="150%" height="150%"><feGaussianBlur stdDeviation="4"/></filter><path id="hg" d="M70 50 175 50 175 128 278 128 278 50 380 50 380 300 278 300 278 211 175 211 175 300 70 300Z M610 50 430 50 404 78 404 273 430 300 610 300 610 153 505 153 505 213 538 213 538 238 476 238 476 111 610 111Z"/><pattern id="scan" width="4" height="6" patternUnits="userSpaceOnUse"><rect width="4" height="1" fill="#243969" opacity=".4"/></pattern></defs><g transform="translate(0 80) skewY(-9)"><use href="#hg" stroke="#75baff" stroke-width="16" fill="#03206a" filter="url(#glow)"/><use href="#hg" transform="translate(9 13)" stroke="#245ca1" stroke-width="12" fill="#153e7c"/><use href="#hg" stroke="#cbdcff" stroke-width="10" stroke-linejoin="miter" fill="#030c27"/><use href="#hg" stroke="#648fc5" stroke-width="3" fill="url(#scan)"/><text x="340" y="366" text-anchor="middle" font-family="Arial,sans-serif" font-size="58" font-weight="900" letter-spacing="4" fill="#071431" stroke="#c5e6ff" stroke-width="2" paint-order="stroke">PORTFOLIO</text></g></svg>
